<svg width="104" height="19" viewBox="0 0 104 19" fill="none" xmlns="http://www.w3.org/2000/svg">
<path d="M6.088 18.288C4.952 18.288 3.904 18.08 2.944 17.664C2 17.232 1.224 16.624 0.616 15.84L2.776 13.248C3.688 14.48 4.728 15.096 5.896 15.096C7.48 15.096 8.272 14.168 8.272 12.312V4.32H2.368V1.2H12.136V12.096C12.136 14.16 11.624 15.712 10.6 16.752C9.576 17.776 8.072 18.288 6.088 18.288ZM23.4404 18.288C21.0404 18.288 19.1684 17.624 17.8244 16.296C16.4964 14.968 15.8324 13.072 15.8324 10.608V1.2H19.7204V10.464C19.7204 13.472 20.9684 14.976 23.4644 14.976C24.6804 14.976 25.6084 14.616 26.2484 13.896C26.8884 13.16 27.2084 12.016 27.2084 10.464V1.2H31.0484V10.608C31.0484 13.072 30.3764 14.968 29.0324 16.296C27.7044 17.624 25.8404 18.288 23.4404 18.288ZM40.4104 18.288C39.0824 18.288 37.7944 18.112 36.5464 17.76C35.3144 17.392 34.3224 16.92 33.5704 16.344L34.8904 13.416C35.6104 13.944 36.4664 14.368 37.4584 14.688C38.4504 15.008 39.4424 15.168 40.4344 15.168C41.5384 15.168 42.3544 15.008 42.8824 14.688C43.4104 14.352 43.6744 13.912 43.6744 13.368C43.6744 12.968 43.5144 12.64 43.1944 12.384C42.8904 12.112 42.4904 11.896 41.9944 11.736C41.5144 11.576 40.8584 11.4 40.0264 11.208C38.7464 10.904 37.6984 10.6 36.8824 10.296C36.0664 9.992 35.3624 9.504 34.7704 8.832C34.1944 8.16 33.9064 7.264 33.9064 6.144C33.9064 5.168 34.1704 4.288 34.6984 3.504C35.2264 2.704 36.0184 2.072 37.0744 1.608C38.1464 1.144 39.4504 0.912 40.9864 0.912C42.0584 0.912 43.1064 1.04 44.1304 1.296C45.1544 1.552 46.0504 1.92 46.8184 2.4L45.6184 5.352C44.0664 4.472 42.5144 4.032 40.9624 4.032C39.8744 4.032 39.0664 4.208 38.5384 4.56C38.0264 4.912 37.7704 5.376 37.7704 5.952C37.7704 6.528 38.0664 6.96 38.6584 7.248C39.2664 7.52 40.1864 7.792 41.4184 8.064C42.6984 8.368 43.7464 8.672 44.5624 8.976C45.3784 9.28 46.0744 9.76 46.6504 10.416C47.2424 11.072 47.5384 11.96 47.5384 13.08C47.5384 14.04 47.2664 14.92 46.7224 15.72C46.1944 16.504 45.3944 17.128 44.3224 17.592C43.2504 18.056 41.9464 18.288 40.4104 18.288ZM53.4408 4.368H48.0648V1.2H62.7048V4.368H57.3288V18H53.4408V4.368ZM64.7967 1.2H68.6847V18H64.7967V1.2ZM80.7117 18.288C78.9997 18.288 77.4477 17.92 76.0557 17.184C74.6797 16.432 73.5917 15.4 72.7917 14.088C72.0077 12.76 71.6157 11.264 71.6157 9.6C71.6157 7.936 72.0077 6.448 72.7917 5.136C73.5917 3.808 74.6797 2.776 76.0557 2.04C77.4477 1.288 79.0077 0.912 80.7357 0.912C82.1917 0.912 83.5037 1.168 84.6717 1.68C85.8557 2.192 86.8477 2.928 87.6477 3.888L85.1517 6.192C84.0157 4.88 82.6077 4.224 80.9277 4.224C79.8877 4.224 78.9597 4.456 78.1437 4.92C77.3277 5.368 76.6877 6 76.2237 6.816C75.7757 7.632 75.5517 8.56 75.5517 9.6C75.5517 10.64 75.7757 11.568 76.2237 12.384C76.6877 13.2 77.3277 13.84 78.1437 14.304C78.9597 14.752 79.8877 14.976 80.9277 14.976C82.6077 14.976 84.0157 14.312 85.1517 12.984L87.6477 15.288C86.8477 16.264 85.8557 17.008 84.6717 17.52C83.4877 18.032 82.1677 18.288 80.7117 18.288ZM103.281 14.88V18H90.2733V1.2H102.969V4.32H94.1373V7.968H101.937V10.992H94.1373V14.88H103.281Z" fill="white"/>
</svg>
