<svg width="105" height="24" viewBox="0 0 105 24" fill="none" xmlns="http://www.w3.org/2000/svg">
<path d="M6.088 21.288C4.952 21.288 3.904 21.08 2.944 20.664C2 20.232 1.224 19.624 0.616 18.84L2.776 16.248C3.688 17.48 4.728 18.096 5.896 18.096C7.48 18.096 8.272 17.168 8.272 15.312V7.32H2.368V4.2H12.136V15.096C12.136 17.16 11.624 18.712 10.6 19.752C9.576 20.776 8.072 21.288 6.088 21.288ZM23.4404 21.288C21.0404 21.288 19.1684 20.624 17.8244 19.296C16.4964 17.968 15.8324 16.072 15.8324 13.608V4.2H19.7204V13.464C19.7204 16.472 20.9684 17.976 23.4644 17.976C24.6804 17.976 25.6084 17.616 26.2484 16.896C26.8884 16.16 27.2084 15.016 27.2084 13.464V4.2H31.0484V13.608C31.0484 16.072 30.3764 17.968 29.0324 19.296C27.7044 20.624 25.8404 21.288 23.4404 21.288ZM40.4104 21.288C39.0824 21.288 37.7944 21.112 36.5464 20.76C35.3144 20.392 34.3224 19.92 33.5704 19.344L34.8904 16.416C35.6104 16.944 36.4664 17.368 37.4584 17.688C38.4504 18.008 39.4424 18.168 40.4344 18.168C41.5384 18.168 42.3544 18.008 42.8824 17.688C43.4104 17.352 43.6744 16.912 43.6744 16.368C43.6744 15.968 43.5144 15.64 43.1944 15.384C42.8904 15.112 42.4904 14.896 41.9944 14.736C41.5144 14.576 40.8584 14.4 40.0264 14.208C38.7464 13.904 37.6984 13.6 36.8824 13.296C36.0664 12.992 35.3624 12.504 34.7704 11.832C34.1944 11.16 33.9064 10.264 33.9064 9.144C33.9064 8.168 34.1704 7.288 34.6984 6.504C35.2264 5.704 36.0184 5.072 37.0744 4.608C38.1464 4.144 39.4504 3.912 40.9864 3.912C42.0584 3.912 43.1064 4.04 44.1304 4.296C45.1544 4.552 46.0504 4.92 46.8184 5.4L45.6184 8.352C44.0664 7.472 42.5144 7.032 40.9624 7.032C39.8744 7.032 39.0664 7.208 38.5384 7.56C38.0264 7.912 37.7704 8.376 37.7704 8.952C37.7704 9.528 38.0664 9.96 38.6584 10.248C39.2664 10.52 40.1864 10.792 41.4184 11.064C42.6984 11.368 43.7464 11.672 44.5624 11.976C45.3784 12.28 46.0744 12.76 46.6504 13.416C47.2424 14.072 47.5384 14.96 47.5384 16.08C47.5384 17.04 47.2664 17.92 46.7224 18.72C46.1944 19.504 45.3944 20.128 44.3224 20.592C43.2504 21.056 41.9464 21.288 40.4104 21.288ZM53.4408 7.368H48.0648V4.2H62.7048V7.368H57.3288V21H53.4408V7.368ZM64.7967 4.2H68.6847V21H64.7967V4.2ZM80.7117 21.288C78.9997 21.288 77.4477 20.92 76.0557 20.184C74.6797 19.432 73.5917 18.4 72.7917 17.088C72.0077 15.76 71.6157 14.264 71.6157 12.6C71.6157 10.936 72.0077 9.448 72.7917 8.136C73.5917 6.808 74.6797 5.776 76.0557 5.04C77.4477 4.288 79.0077 3.912 80.7357 3.912C82.1917 3.912 83.5037 4.168 84.6717 4.68C85.8557 5.192 86.8477 5.928 87.6477 6.888L85.1517 9.192C84.0157 7.88 82.6077 7.224 80.9277 7.224C79.8877 7.224 78.9597 7.456 78.1437 7.92C77.3277 8.368 76.6877 9 76.2237 9.816C75.7757 10.632 75.5517 11.56 75.5517 12.6C75.5517 13.64 75.7757 14.568 76.2237 15.384C76.6877 16.2 77.3277 16.84 78.1437 17.304C78.9597 17.752 79.8877 17.976 80.9277 17.976C82.6077 17.976 84.0157 17.312 85.1517 15.984L87.6477 18.288C86.8477 19.264 85.8557 20.008 84.6717 20.52C83.4877 21.032 82.1677 21.288 80.7117 21.288ZM103.281 17.88V21H90.2733V4.2H102.969V7.32H94.1373V10.968H101.937V13.992H94.1373V17.88H103.281Z" fill="#4448DA"/>
</svg>
