<svg width="18" height="20" viewBox="0 0 18 20" fill="none" xmlns="http://www.w3.org/2000/svg">
<path d="M14.3333 6.40096C14.3333 4.96854 13.7714 3.59478 12.7712 2.5819C11.771 1.56903 10.4145 1 9 1C7.58551 1 6.22896 1.56903 5.22876 2.5819C4.22857 3.59478 3.66667 4.96854 3.66667 6.40096C3.66667 12.7021 1 14.5024 1 14.5024H17C17 14.5024 14.3333 12.7021 14.3333 6.40096Z" stroke="#1F1F1F" stroke-opacity="0.5" stroke-width="2" stroke-linecap="round" stroke-linejoin="round"/>
<path d="M10.5377 18.103C10.3814 18.3758 10.1571 18.6023 9.88725 18.7597C9.61737 18.9171 9.31138 19 8.99994 19C8.68849 19 8.3825 18.9171 8.11262 18.7597C7.84274 18.6023 7.61843 18.3758 7.46216 18.103" stroke="#1F1F1F" stroke-opacity="0.5" stroke-width="2" stroke-linecap="round" stroke-linejoin="round"/>
</svg>
